<svg width="27" height="22" viewBox="0 0 27 22" fill="none" xmlns="http://www.w3.org/2000/svg">
<path d="M14.0197 8.34868C6.10948 12.425 11.371 23.362 21.2396 20.5068C22.1593 20.8639 22.9785 21.4428 23.8698 21.8732C23.6394 21.0977 23.3936 20.3309 23.1314 19.5674C26.1898 17.3883 26.8605 14.3048 25.73 11.7708C23.9649 7.75449 18.3287 6.10952 14.0197 8.34868ZM16.7832 12.3442C16.5549 13.0597 15.5205 13.2737 15.0191 12.7298C14.4665 12.2262 14.6816 11.1744 15.4069 10.9494C16.2086 10.6108 17.1349 11.5403 16.7832 12.3442ZM22.0042 12.4469H22.0195C21.7388 13.088 20.7732 13.2388 20.2992 12.7418C20.0709 12.5321 20.0043 12.2164 19.9234 11.9412C20.037 11.4387 20.3822 10.9177 20.9393 10.8937C21.7093 10.7866 22.3985 11.7413 22.0042 12.4469Z" fill="white"/>
<path d="M19.0377 6.85227C18.5614 4.51044 16.923 2.53234 14.8608 1.39091H14.8903V1.38982C7.5721 -2.74552 -1.53963 3.02277 0.221108 9.82544C0.694062 11.844 2.08999 13.5359 3.7841 14.6653C3.45642 15.597 3.14512 16.5287 2.85021 17.467C3.91517 16.9077 4.98014 16.3234 6.04619 15.7554C7.32415 16.1672 8.68403 16.3681 10.0439 16.3234C8.364 11.5043 12.673 6.39898 19.0377 6.85227ZM12.3999 4.05496C13.2574 3.70981 14.271 4.4318 14.2033 5.35477L14.2055 5.36787C14.2142 6.42192 12.8128 7.07946 12.0264 6.36512C11.2105 5.77748 11.442 4.34988 12.3999 4.05496ZM7.58848 5.63548C7.40061 6.5508 6.17836 6.99317 5.46292 6.37823C4.63389 5.79168 4.86654 4.33786 5.83975 4.04186C6.79331 3.67267 7.87684 4.64479 7.58848 5.63548Z" fill="white"/>
</svg>
